HIERARCHY
ROOT Beta:Hips
{
	OFFSET 0.00 0.00 0.00
	CHANNELS 6 Xposition Yposition Zposition Yrotation Xrotation Zrotation
	JOINT Beta:Spine
	{
		OFFSET	0.0000	9.2263	1.5771
		CHANNELS 3 Xrotation Yrotation Zrotation
		JOINT Beta:Spine1
		{
			OFFSET	0.0000	16.2540	-0.1656
			CHANNELS 3 Xrotation Yrotation Zrotation
			JOINT Beta:Spine2
			{
				OFFSET	0.0000	13.6396	-1.2923
				CHANNELS 3 Xrotation Yrotation Zrotation
				JOINT Beta:Neck
				{
					OFFSET	0.0000	13.8774	-4.3542
					CHANNELS 3 Xrotation Yrotation Zrotation
					JOINT Beta:Neck1
					{
						OFFSET	0.0000	4.3400	0.9269
						CHANNELS 3 Xrotation Yrotation Zrotation
						JOINT Beta:Head
						{
							OFFSET	0.0000	4.0266	0.8585
							CHANNELS 3 Xrotation Yrotation Zrotation
							End Site
							{
								OFFSET 0.0000 23.0297 0.1231
							}
						}
					}
				}
				JOINT Beta:LeftShoulder
				{
					OFFSET	6.1442	10.1870	-3.7932
					CHANNELS 3 Zrotation Xrotation Yrotation
					JOINT Beta:LeftArm
					{
						OFFSET	12.3191	-1.1130	-1.7935
						CHANNELS 3 Zrotation Xrotation Yrotation
						JOINT Beta:LeftForeArm
						{
							OFFSET	27.6870	0.0000	0.0000
							CHANNELS 3 Xrotation Zrotation Yrotation
							JOINT Beta:LeftHand
							{
								OFFSET	27.8738	0.0000	0.0000
								CHANNELS 3 Zrotation Yrotation Xrotation
								JOINT Beta:LeftHandThumb1
								{
									OFFSET	2.3785	-1.0029	2.6209
									CHANNELS 3 Zrotation Xrotation Yrotation
									JOINT Beta:LeftHandThumb2
									{
										OFFSET	3.3624	-1.0029	2.8398
										CHANNELS 3 Zrotation Xrotation Yrotation
										JOINT Beta:LeftHandThumb3
										{
											OFFSET	4.5018	-1.3445	2.1783
											CHANNELS 3 Zrotation Xrotation Yrotation
											End Site
											{
												OFFSET 2.6000 -1.0000 1.0000
											}
										}
									}
								}
								JOINT Beta:LeftHandMiddle1
								{
									OFFSET	10.4639	0.6148	0.4298
									CHANNELS 3 Zrotation Xrotation Yrotation
									JOINT Beta:LeftHandMiddle2
									{
										OFFSET	5.7921	0.0000	0.0000
										CHANNELS 3 Zrotation Xrotation Yrotation
										JOINT Beta:LeftHandMiddle3
										{
											OFFSET	3.7132	0.0000	0.0000
											CHANNELS 3 Zrotation Xrotation Yrotation
											End Site
											{
												OFFSET 2.3000 0.0000 0.0000
											}
										}
									}
								}
								JOINT Beta:LeftHandIndex1
								{
									OFFSET	10.3945	0.6148	2.7055
									CHANNELS 3 Zrotation Xrotation Yrotation
									JOINT Beta:LeftHandIndex2
									{
										OFFSET	5.5493	0.0000	0.0000
										CHANNELS 3 Zrotation Xrotation Yrotation
										JOINT Beta:LeftHandIndex3
										{
											OFFSET	3.3911	0.0000	0.0000
											CHANNELS 3 Zrotation Xrotation Yrotation
											End Site
											{
												OFFSET 2.5000 0.0000 0.0000
											}
										}
									}
								}
								JOINT Beta:LeftHandRing1
								{
									OFFSET	10.3252	0.3211	-1.8755
									CHANNELS 3 Zrotation Xrotation Yrotation
									JOINT Beta:LeftHandRing2
									{
										OFFSET	5.4452	0.0000	0.0000
										CHANNELS 3 Zrotation Xrotation Yrotation
										JOINT Beta:LeftHandRing3
										{
											OFFSET	3.7132	0.0000	0.0000
											CHANNELS 3 Zrotation Xrotation Yrotation
											End Site
											{
												OFFSET 2.0000 0.0000 0.0000
											}
										}
									}
								}
								JOINT Beta:LeftHandPinky1
								{
									OFFSET	10.0130	-0.0783	-3.9671
									CHANNELS 3 Zrotation Xrotation Yrotation
									JOINT Beta:LeftHandPinky2
									{
										OFFSET	3.6763	0.0000	0.0000
										CHANNELS 3 Zrotation Xrotation Yrotation
										JOINT Beta:LeftHandPinky3
										{
											OFFSET	2.8113	0.0000	0.0000
											CHANNELS 3 Zrotation Xrotation Yrotation
											End Site
											{
												OFFSET 2.9000 0.0000 0.0000
											}
										}
									}
								}
							}
						}
					}
				}
				JOINT Beta:RightShoulder
				{
					OFFSET	-6.1402	10.1870	-3.7932
					CHANNELS 3 Zrotation Xrotation Yrotation
					JOINT Beta:RightArm
					{
						OFFSET	-12.3231	-1.1130	-1.7935
						CHANNELS 3 Zrotation Xrotation Yrotation
						JOINT Beta:RightForeArm
						{
							OFFSET	-27.6870	0.0000	0.0000
							CHANNELS 3 Xrotation Zrotation Yrotation
							JOINT Beta:RightHand
							{
								OFFSET	-27.8738	0.0000	0.0000
								CHANNELS 3 Zrotation Yrotation Xrotation
								JOINT Beta:RightHandThumb1
								{
									OFFSET	-2.5178	-0.9367	2.5137
									CHANNELS 3 Zrotation Xrotation Yrotation
									JOINT Beta:RightHandThumb2
									{
										OFFSET	-3.2638	-1.0870	2.9669
										CHANNELS 3 Zrotation Xrotation Yrotation
										JOINT Beta:RightHandThumb3
										{
											OFFSET	-4.4165	-1.3703	2.1350
											CHANNELS 3 Zrotation Xrotation Yrotation
											End Site
											{
												OFFSET -2.6000 -1.0000 1.0000
											}
										}
									}
								}
								JOINT Beta:RightHandIndex1
								{
									OFFSET	-10.4665	0.4896	2.7120
									CHANNELS 3 Zrotation Xrotation Yrotation
									JOINT Beta:RightHandIndex2
									{
										OFFSET	-5.3768	0.0000	0.0000
										CHANNELS 3 Zrotation Xrotation Yrotation
										JOINT Beta:RightHandIndex3
										{
											OFFSET	-3.3855	0.0000	0.0000
											CHANNELS 3 Zrotation Xrotation Yrotation
											End Site
											{
												OFFSET -2.6000 0.0000 0.0000
											}
										}
									}
								}
								JOINT Beta:RightHandMiddle1
								{
									OFFSET	-10.7596	0.4896	0.4278
									CHANNELS 3 Zrotation Xrotation Yrotation
									JOINT Beta:RightHandMiddle2
									{
										OFFSET	-5.6168	0.0000	0.0000
										CHANNELS 3 Zrotation Xrotation Yrotation
										JOINT Beta:RightHandMiddle3
										{
											OFFSET	-3.7364	0.0000	0.0000
											CHANNELS 3 Zrotation Xrotation Yrotation
											End Site
											{
												OFFSET -2.3000 0.0000 0.0000
											}
										}
									}
								}
								JOINT Beta:RightHandRing1
								{
									OFFSET	-10.4702	0.3879	-1.9363
									CHANNELS 3 Zrotation Xrotation Yrotation
									JOINT Beta:RightHandRing2
									{
										OFFSET	-5.4013	0.0000	0.0000
										CHANNELS 3 Zrotation Xrotation Yrotation
										JOINT Beta:RightHandRing3
										{
											OFFSET	-3.3916	0.0000	0.0000
											CHANNELS 3 Zrotation Xrotation Yrotation
											End Site
											{
												OFFSET -2.2000 0.0000 0.0000
											}
										}
									}
								}
								JOINT Beta:RightHandPinky1
								{
									OFFSET	-9.9715	-0.1191	-3.9540
									CHANNELS 3 Zrotation Xrotation Yrotation
									JOINT Beta:RightHandPinky2
									{
										OFFSET	-3.6528	0.0000	0.0000
										CHANNELS 3 Zrotation Xrotation Yrotation
										JOINT Beta:RightHandPinky3
										{
											OFFSET	-2.7820	0.0000	0.0000
											CHANNELS 3 Zrotation Xrotation Yrotation
											End Site
											{
												OFFSET -2.9000 0.0000 0.0000
											}
										}
									}
								}
							}
						}
					}
				}
			}
		}
	}
	JOINT Beta:LeftUpLeg
	{
		OFFSET	9.6338	-3.2733	0.0000
		CHANNELS 3 Xrotation Yrotation Zrotation
		JOINT Beta:LeftLeg
		{
			OFFSET	0.0000	-41.7300	-1.7300
			CHANNELS 3 Xrotation Yrotation Zrotation
			JOINT Beta:LeftFoot
			{
				OFFSET	0.0126	-39.1900	-0.8477
				CHANNELS 3 Xrotation Yrotation Zrotation
				JOINT Beta:LeftToeBase
				{
					OFFSET	-0.1833	-12.1931	8.2823
					CHANNELS 3 Xrotation Yrotation Zrotation
					End Site
					{
						OFFSET 0.0000 0.0000 10.1681
					}
				}
			}
		}
	}
	JOINT Beta:RightUpLeg
	{
		OFFSET	-9.6338	-3.2733	0.0000
		CHANNELS 3 Xrotation Yrotation Zrotation
		JOINT Beta:RightLeg
		{
			OFFSET	0.0000	-41.7300	-1.7300
			CHANNELS 3 Xrotation Yrotation Zrotation
			JOINT Beta:RightFoot
			{
				OFFSET	0.0126	-39.1900	-0.8477
				CHANNELS 3 Xrotation Yrotation Zrotation
				JOINT Beta:RightToeBase
				{
					OFFSET	-0.1833	-12.1931	8.2823
					CHANNELS 3 Xrotation Yrotation Zrotation
					End Site
					{
						OFFSET 0.0032 0.0000 10.1681
					}
				}
			}
		}
	}
}
MOTION
Frames: 9
Frame Time: 0.0333333
-0.1740 91.5541 0.0615 -48.2616 -8.3398 4.2294 1.4790 0.2771 0.2014 2.9570 0.6553 0.3863 2.9571 0.6553 0.3863 14.5726 5.2879 -3.7204 -0.0000 0.0000 -0.0000 0.7614 29.9835 -6.0377 -0.1625 0.3613 -19.2002 -26.1858 -46.5699 10.5851 2.9378 -2.4392 -112.0635 1.0452 6.8037 2.8476 2.8239 11.3837 -13.0271 -48.4382 6.5961 40.4295 0.0000 -0.0000 0.0000 -103.1981 1.1102 -0.6342 -96.8235 -2.6385 -3.2562 0.0000 -0.0000 -0.0000 -108.7091 3.9882 6.8306 -95.2691 -3.1496 -1.6563 -0.0000 0.0000 -0.0000 -108.5429 -4.0221 -4.3934 -87.6300 2.4536 2.7877 -0.0000 0.0000 0.0000 -112.2759 -3.1554 -8.7707 -95.3563 5.8418 8.0429 0.0000 0.0000 -0.0000 1.9657 -0.2568 -3.6795 37.1267 30.0630 76.9148 -0.7204 1.0337 104.5561 -0.5439 11.9669 14.5015 -2.8239 11.3837 13.0271 48.4382 6.5961 -40.4295 -0.0000 -0.0000 0.0000 108.6861 2.7660 -7.0372 95.2096 -4.2674 0.2251 0.0000 -0.0000 -0.0000 103.2902 -0.0151 0.3676 96.8108 -3.6298 1.8462 0.0000 0.0000 0.0000 108.5019 -2.5709 4.8414 87.6046 3.3754 -0.9473 0.0000 0.0000 0.0000 112.2431 0.0597 9.4183 95.2915 8.6032 -4.2442 -0.0000 -0.0000 -0.0000 -15.4889 18.4574 14.3776 27.4602 2.0524 0.6540 -4.0207 1.9240 -12.0429 1.9568 -0.0000 -0.0000 -5.9282 -12.3201 -14.8076 36.4845 3.3218 -5.9565 -23.4532 -3.2046 11.4499 -1.5404 -0.0000 -0.0000 
-0.1787 91.5482 0.0722 -48.1745 -8.2450 4.2052 1.4935 0.2770 0.1983 2.9859 0.6556 0.3797 2.9859 0.6556 0.3797 14.5277 5.2945 -3.7010 -0.0000 0.0000 -0.0000 0.6572 29.9795 -5.9411 -0.1831 0.3666 -19.2086 -26.2489 -46.6109 10.4706 2.9366 -2.4403 -112.0863 1.0331 6.6598 2.4216 2.8257 11.3845 -13.0289 -48.4404 6.5958 40.4295 0.0000 -0.0000 0.0000 -103.1981 1.1102 -0.6341 -96.8235 -2.6385 -3.2562 -0.0000 0.0000 0.0000 -108.7091 3.9882 6.8306 -95.2691 -3.1496 -1.6563 0.0000 0.0000 -0.0000 -108.5429 -4.0221 -4.3934 -87.6301 2.4536 2.7877 -0.0000 0.0000 0.0000 -112.2757 -3.1554 -8.7707 -95.3569 5.8417 8.0430 -0.0000 0.0000 -0.0000 2.0074 -0.2566 -3.5871 37.1606 30.0434 76.7529 -0.7149 1.0319 104.6945 -0.4675 11.8015 14.6293 -2.8257 11.3844 13.0289 48.4404 6.5958 -40.4295 0.0000 -0.0000 -0.0000 108.6861 2.7660 -7.0372 95.2096 -4.2674 0.2251 0.0000 0.0000 0.0000 103.2902 -0.0152 0.3676 96.8108 -3.6297 1.8462 -0.0000 0.0000 -0.0000 108.5019 -2.5709 4.8414 87.6046 3.3754 -0.9473 0.0000 0.0000 0.0000 112.2430 0.0597 9.4182 95.2921 8.6032 -4.2443 0.0000 -0.0000 -0.0000 -15.6398 18.4230 14.4042 27.5281 1.9986 0.6358 -4.0518 1.9174 -12.0197 1.6784 -0.0000 -0.0000 -5.9667 -12.2686 -14.7267 36.4621 3.1620 -5.9991 -23.4542 -3.2285 11.5217 -1.6028 0.0000 0.0000 
-0.1799 91.5570 0.0854 -47.9188 -8.1536 4.1479 1.5171 0.2930 0.1861 3.0333 0.6885 0.3530 3.0333 0.6885 0.3530 14.4012 5.2683 -3.5503 -0.0000 0.0000 -0.0000 0.5798 29.9086 -5.9507 -0.1817 0.3647 -19.2267 -26.5390 -46.6720 10.0227 2.9221 -2.4424 -112.0329 0.8085 6.7982 2.2625 2.8311 11.3867 -13.0342 -48.4469 6.5949 40.4296 0.0000 0.0000 0.0000 -103.1981 1.1102 -0.6340 -96.8235 -2.6385 -3.2562 0.0000 -0.0000 -0.0000 -108.7091 3.9882 6.8306 -95.2691 -3.1496 -1.6563 0.0000 -0.0000 0.0000 -108.5429 -4.0221 -4.3934 -87.6300 2.4536 2.7877 0.0000 -0.0000 -0.0000 -112.2754 -3.1554 -8.7707 -95.3588 5.8416 8.0433 -0.0000 0.0000 0.0000 2.2759 -0.2626 -3.6300 37.0529 29.9884 76.6011 -0.7098 1.0200 104.9051 -0.8053 11.8705 14.6164 -2.8311 11.3867 13.0342 48.4469 6.5949 -40.4296 -0.0000 0.0000 0.0000 108.6861 2.7660 -7.0372 95.2096 -4.2674 0.2251 0.0000 0.0000 -0.0000 103.2903 -0.0152 0.3676 96.8108 -3.6298 1.8462 0.0000 0.0000 -0.0000 108.5019 -2.5709 4.8414 87.6046 3.3754 -0.9473 0.0000 0.0000 -0.0000 112.2426 0.0597 9.4182 95.2940 8.6031 -4.2446 0.0000 0.0000 -0.0000 -15.8108 18.3644 14.4206 27.5331 1.8301 0.6241 -4.0360 1.8883 -11.9558 1.6547 -0.0000 -0.0000 -5.8768 -12.1990 -14.5494 36.2995 2.7718 -6.0586 -23.4000 -3.2683 11.6797 -1.6772 0.0000 0.0000 
-0.1738 91.5848 0.1037 -47.5399 -8.0514 4.0575 1.5457 0.3145 0.1644 3.0905 0.7327 0.3055 3.0905 0.7327 0.3055 14.2075 5.2233 -3.2966 -0.0000 0.0000 -0.0000 0.5532 29.7955 -6.0158 -0.1350 0.3481 -19.2488 -26.9237 -46.7184 9.3535 2.8989 -2.4449 -111.9256 0.5213 7.0124 2.2365 2.8401 11.3904 -13.0431 -48.4578 6.5935 40.4296 0.0000 0.0000 0.0000 -103.1981 1.1101 -0.6337 -96.8235 -2.6385 -3.2562 0.0000 -0.0000 -0.0000 -108.7091 3.9882 6.8306 -95.2691 -3.1496 -1.6563 0.0000 -0.0000 0.0000 -108.5429 -4.0221 -4.3934 -87.6300 2.4536 2.7877 0.0000 -0.0000 -0.0000 -112.2747 -3.1555 -8.7706 -95.3618 5.8413 8.0438 0.0000 0.0000 0.0000 2.6803 -0.2748 -3.7344 36.9885 29.9799 76.3300 -0.7067 0.9917 105.1805 -1.8126 12.4717 14.3588 -2.8401 11.3904 13.0431 48.4578 6.5935 -40.4296 0.0000 -0.0000 0.0000 108.6861 2.7660 -7.0372 95.2096 -4.2674 0.2251 0.0000 0.0000 -0.0000 103.2902 -0.0151 0.3676 96.8108 -3.6297 1.8462 0.0000 -0.0000 -0.0000 108.5019 -2.5709 4.8414 87.6046 3.3754 -0.9473 0.0000 0.0000 -0.0000 112.2419 0.0596 9.4182 95.2970 8.6030 -4.2451 0.0000 0.0000 0.0000 -15.9894 18.2750 14.4185 27.4563 1.5982 0.6237 -3.9680 1.8428 -11.8648 1.5265 0.0000 -0.0000 -5.6915 -12.1362 -14.3013 35.9886 2.2384 -6.1235 -23.2766 -3.3177 11.8925 -1.7536 -0.0000 -0.0000 
-0.1577 91.6334 0.1287 -47.0674 -7.9222 3.9454 1.5597 0.3229 0.1571 3.1187 0.7513 0.2865 3.1187 0.7513 0.2865 14.0498 5.1871 -3.0959 -0.0000 0.0000 -0.0000 0.6053 29.6582 -6.0448 -0.2624 0.3841 -19.2465 -27.5006 -46.6577 8.5333 2.8627 -2.4384 -111.8051 0.3035 7.0493 2.1610 2.8527 11.3956 -13.0555 -48.4730 6.5914 40.4298 0.0000 0.0000 -0.0000 -103.1981 1.1100 -0.6334 -96.8235 -2.6385 -3.2562 -0.0000 -0.0000 0.0000 -108.7091 3.9882 6.8306 -95.2691 -3.1496 -1.6563 -0.0000 0.0000 -0.0000 -108.5429 -4.0221 -4.3934 -87.6300 2.4536 2.7877 -0.0000 0.0000 0.0000 -112.2738 -3.1557 -8.7706 -95.3660 5.8408 8.0445 -0.0000 -0.0000 0.0000 3.1270 -0.2754 -3.7151 36.7621 29.9607 76.0067 -0.6970 0.9657 105.4452 -2.7912 13.1585 13.9941 -2.8527 11.3956 13.0555 48.4730 6.5914 -40.4297 0.0000 0.0000 -0.0000 108.6861 2.7660 -7.0372 95.2096 -4.2675 0.2251 -0.0000 -0.0000 -0.0000 103.2903 -0.0152 0.3675 96.8108 -3.6297 1.8462 -0.0000 0.0000 0.0000 108.5019 -2.5710 4.8414 87.6046 3.3754 -0.9473 0.0000 0.0000 -0.0000 112.2411 0.0594 9.4182 95.3013 8.6028 -4.2457 -0.0000 0.0000 -0.0000 -16.1656 18.1470 14.3742 27.2795 1.3517 0.6432 -3.8408 1.7792 -11.7600 1.5239 -0.0000 -0.0000 -5.4309 -12.0457 -13.9839 35.5280 1.5540 -6.2037 -23.0767 -3.3730 12.1663 -1.7953 0.0000 -0.0000 
-0.1265 91.7020 0.1575 -46.5491 -7.7243 3.8313 1.5588 0.3257 0.1459 3.1169 0.7584 0.2593 3.1169 0.7584 0.2593 13.9150 5.1389 -2.8609 -0.0000 0.0000 -0.0000 0.7443 29.5187 -6.1867 -0.4344 0.4331 -19.1995 -28.3109 -46.3923 7.4392 2.8126 -2.4237 -111.6567 0.2468 6.8837 2.1347 2.8688 11.4022 -13.0713 -48.4923 6.5890 40.4296 0.0000 -0.0000 0.0000 -103.1973 1.1099 -0.6331 -96.8225 -2.6386 -3.2562 0.0000 0.0000 0.0000 -108.7083 3.9882 6.8306 -95.2680 -3.1496 -1.6562 0.0000 -0.0000 -0.0000 -108.5421 -4.0221 -4.3934 -87.6290 2.4536 2.7877 -0.0000 -0.0000 0.0000 -112.2719 -3.1558 -8.7705 -95.3705 5.8403 8.0453 -0.0000 0.0000 0.0000 3.6338 -0.2681 -3.6314 36.5376 29.9805 75.5904 -0.6803 0.9523 105.6856 -2.8563 13.2677 14.0100 -2.8688 11.4022 13.0714 48.4924 6.5888 -40.4296 0.0000 0.0000 0.0000 108.6853 2.7660 -7.0372 95.2085 -4.2674 0.2250 0.0000 0.0000 -0.0000 103.2895 -0.0152 0.3676 96.8098 -3.6297 1.8462 0.0000 0.0000 -0.0000 108.5010 -2.5710 4.8414 87.6037 3.3754 -0.9473 -0.0000 -0.0000 0.0000 112.2390 0.0592 9.4181 95.3059 8.6026 -4.2465 -0.0000 0.0000 0.0000 -16.3591 17.9958 14.2788 26.9885 1.1255 0.6681 -3.6475 1.6993 -11.6406 1.5556 0.0000 0.0000 -5.1675 -11.9005 -13.6167 34.9430 0.7480 -6.3110 -22.8004 -3.4315 12.4932 -1.8117 0.0000 -0.0000 
-0.0760 91.7847 0.1913 -46.0815 -7.4403 3.7135 1.5508 0.3393 0.1302 3.1010 0.7862 0.2233 3.1010 0.7862 0.2233 13.7663 5.0831 -2.6125 -0.0000 0.0000 -0.0000 0.8797 29.3895 -6.4024 -0.5655 0.4686 -19.0336 -29.1635 -46.1223 6.1629 2.7566 -2.4012 -111.5206 0.7679 6.6908 2.4023 2.9828 11.2925 -13.1535 -48.1866 6.9299 39.9904 0.0000 0.0000 0.0000 -101.5723 1.1098 -0.6327 -94.7472 -2.6768 -3.1596 0.0000 0.0000 -0.0000 -107.1027 3.9979 6.8072 -93.0465 -3.1928 -1.5284 -0.0000 0.0000 -0.0000 -106.8657 -4.0444 -4.3274 -85.6187 2.4740 2.6919 -0.0000 0.0000 -0.0000 -110.5078 -3.2157 -8.5876 -93.5178 5.9139 7.7950 -0.0000 0.0000 0.0000 4.1592 -0.2571 -3.6348 36.4647 30.0190 74.9718 -0.6597 0.9417 105.9606 -2.5681 12.7441 14.4199 -3.1065 11.3461 13.1812 48.4654 6.5910 -39.8918 -0.0000 -0.0000 -0.0000 107.0787 2.7879 -6.9842 92.9843 -4.2633 0.1017 -0.0000 0.0000 0.0000 101.6644 -0.0152 0.3674 94.7327 -3.6266 1.7550 -0.0000 0.0000 -0.0000 106.7812 -2.5985 4.7472 85.7058 3.3479 -0.8746 -0.0000 0.0000 0.0000 110.4853 -0.0006 9.2354 93.4402 8.5750 -4.0078 0.0000 0.0000 -0.0000 -16.5856 17.8227 14.1592 26.6300 0.9960 0.6892 -3.4206 1.6110 -11.5252 1.5881 0.0000 0.0000 -4.9655 -11.6907 -13.2086 34.2753 -0.0827 -6.4679 -22.4550 -3.4903 12.8508 -1.8016 -0.0000 -0.0000 
0.0045 91.8727 0.2508 -45.7971 -7.1362 3.6366 1.5598 0.3782 0.1145 3.1191 0.8632 0.1887 3.1191 0.8632 0.1887 13.5841 5.0297 -2.3966 -0.0000 0.0000 -0.0000 1.0593 29.3206 -6.7677 -0.7915 0.5291 -18.8453 -29.5137 -46.3206 5.2616 2.7160 -2.3696 -111.5880 2.3049 6.8735 2.5990 3.2587 10.8888 -13.1581 -47.0033 7.8392 38.7596 -0.0000 -0.0000 0.0000 -97.1476 1.1068 -0.6514 -89.3820 -2.7467 -2.9103 -0.0000 0.0000 -0.0000 -102.6398 3.9947 6.6636 -87.4081 -3.2651 -1.2104 -0.0000 0.0000 0.0000 -102.3101 -4.0664 -4.1180 -80.4967 2.5028 2.4507 0.0000 -0.0000 0.0000 -105.6816 -3.3456 -8.0348 -88.7497 6.0520 7.1481 -0.0000 -0.0000 0.0000 4.3932 -0.2333 -3.6292 36.8094 30.1234 73.8096 -0.6402 0.9101 106.3095 -3.3740 12.3603 14.6973 -3.6544 11.0740 13.2370 47.9859 6.7014 -38.3320 -0.0000 0.0000 0.0000 102.6145 2.8151 -6.7762 87.3403 -4.2166 -0.1966 0.0000 -0.0000 -0.0000 97.2402 -0.0182 0.3860 89.3635 -3.5908 1.5266 -0.0000 0.0000 0.0000 102.1307 -2.6310 4.4747 80.8342 3.2579 -0.6969 -0.0000 -0.0000 0.0000 105.6902 -0.1304 8.6832 88.6435 8.4552 -3.4061 0.0000 -0.0000 -0.0000 -16.7460 17.6569 13.9785 26.2551 1.0667 0.7198 -3.2129 1.5228 -11.4369 1.7868 -0.0000 -0.0000 -4.8137 -11.3297 -12.8427 33.5993 -0.8645 -6.6436 -22.0702 -3.5432 13.2194 -1.7000 -0.0000 -0.0000 
0.1433 91.9152 0.2344 -45.5623 -6.7390 3.5041 1.5623 0.3817 0.1424 3.1241 0.8711 0.2400 3.1241 0.8711 0.2400 13.5040 5.0057 -2.5037 -0.0000 0.0000 -0.0000 1.2932 29.0833 -6.9628 -1.4885 0.7299 -19.3604 -29.3629 -46.7806 5.1806 2.6871 -2.3258 -112.0434 4.4966 7.6720 1.8824 3.6676 9.7194 -12.0774 -43.3584 9.0262 36.5809 -0.0000 -0.0000 0.0000 -90.5057 1.0855 -0.7904 -82.6540 -2.7230 -2.6242 0.0000 -0.0000 -0.0000 -95.1556 3.8177 5.9806 -80.9739 -3.2130 -0.9168 -0.0000 0.0000 0.0000 -95.5143 -3.8766 -3.6193 -74.5292 2.4590 2.1982 0.0000 0.0000 0.0000 -98.1640 -3.3521 -6.8548 -82.9672 6.0594 6.3915 -0.0000 0.0000 0.0000 4.0437 -0.1671 -3.0720 37.3637 30.4211 71.9333 -0.6072 0.8749 106.3619 -5.3899 12.8673 14.1775 -4.1191 10.0222 12.1032 45.0936 7.3274 -35.3739 -0.0000 0.0000 0.0000 95.1375 2.6662 -6.0850 80.9051 -4.0317 -0.4535 -0.0000 0.0000 0.0000 90.3399 -0.0393 0.5250 82.6342 -3.4379 1.2805 0.0000 0.0000 -0.0000 95.0635 -2.4364 3.9578 74.9339 3.0767 -0.5184 -0.0000 -0.0000 0.0000 98.4974 -0.1379 7.5052 82.8407 8.1561 -2.7333 -0.0000 -0.0000 -0.0000 -17.2120 17.4282 13.9252 26.1506 1.1817 0.7345 -3.0742 1.4392 -11.3538 2.0452 -0.0000 0.0000 -4.9169 -10.7669 -12.3954 33.1864 -1.7640 -6.8031 -21.7465 -3.5987 13.5767 -1.5761 -0.0000 -0.0000 
